ply
format ascii 1.0
comment PYTHON generated
element vertex 20
property float x
property float y
property float z
end_header
2.221993265249255778e-02 3.139120583528787201e-01 1.220553892542919350e-01
4.000101301086913530e-01 3.799084965297769845e-01 8.300192359284621624e-01
1.129260418857120918e-01 5.879383202739579817e-02 3.154651371865725418e-01
1.906835131802107064e-01 8.123107091590560103e-01 -1.881904206865383511e-01
6.705752903968658085e-01 8.682520609692998548e-01 2.565391574301557620e-01
5.303709703037018386e-01 2.557686425489240634e-01 -1.568318811161040216e-03
7.795507884926298203e-01 7.944307715040381801e-01 9.166852110054379832e-02
4.577534610527174141e-01 6.346387887051642140e-01 2.981443713083476998e-01
5.679138534018148832e-01 1.173128540501325867e-01 9.496048898265803118e-01
4.682966689876730815e-01 -9.265282835863442035e-02 9.938339886303149129e-02
2.518069706126695451e-01 5.272952199244962390e-01 -1.339385867406146513e-01
3.837376266767922317e-01 8.969312110156533180e-01 7.459999464453330731e-01
2.287765731070079411e-02 7.637026741146557551e-01 1.562340673102224908e-01
4.711335269628618150e-01 -1.012027714385104193e-01 2.998093444598115553e-02
2.260834150952824029e-01 1.567571874229958251e-01 7.252374894926112425e-01
6.770265894360016912e-01 -3.287812847543614136e-02 1.536338299377558725e-01
8.611885927475843028e-01 4.218232857116684387e-01 1.947638220546293875e-01
7.531849033271009741e-01 1.687904671720615868e-01 6.705474531720627684e-01
4.128162473037787494e-01 5.041991076078085054e-01 4.443740774200723997e-01
3.077468327498936729e-01 7.012163426954405310e-01 8.235226544768600165e-01
